<svg width="25" height="24" viewBox="0 0 25 24" fill="none" xmlns="http://www.w3.org/2000/svg">
<g clip-path="url(#clip0_5378_9255)">
<path d="M8.60156 8H6.60156V15C6.60156 16.1 7.50156 17 8.60156 17H17.6016V15H8.60156V8Z" fill="black"/>
<path d="M20.6016 3H12.6016C11.5016 3 10.6016 3.9 10.6016 5V11C10.6016 12.1 11.5016 13 12.6016 13H20.6016C21.7016 13 22.6016 12.1 22.6016 11V5C22.6016 3.9 21.7016 3 20.6016 3ZM20.6016 11H12.6016V7H20.6016V11Z" fill="black"/>
<path d="M4.60156 12H2.60156V19C2.60156 20.1 3.50156 21 4.60156 21H13.6016V19H4.60156V12Z" fill="black"/>
</g>
<defs>
<clipPath id="clip0_5378_9255">
<rect width="24" height="24" fill="white" transform="translate(0.601562)"/>
</clipPath>
</defs>
</svg>
