<svg width="25" height="24" viewBox="0 0 25 24" fill="none" xmlns="http://www.w3.org/2000/svg">
<g clip-path="url(#clip0_5378_10390)">
<path d="M20.9808 8.57L19.7508 10.42C20.3439 11.6031 20.6343 12.9148 20.5959 14.2377C20.5575 15.5606 20.1916 16.8533 19.5308 18H5.67076C4.81193 16.5101 4.45605 14.7831 4.6559 13.0751C4.85574 11.367 5.60067 9.76882 6.78024 8.51743C7.95981 7.26603 9.51122 6.42804 11.2045 6.1277C12.8978 5.82735 14.6428 6.08063 16.1808 6.85L18.0308 5.62C16.1472 4.41222 13.9131 3.871 11.6856 4.08294C9.45821 4.29487 7.3662 5.2477 5.74425 6.78901C4.1223 8.33033 3.06412 10.3711 2.73898 12.5848C2.41383 14.7986 2.84051 17.0574 3.95076 19C4.12527 19.3023 4.37585 19.5536 4.67759 19.7291C4.97933 19.9045 5.32173 19.9979 5.67076 20H19.5208C19.8732 20.0014 20.2197 19.9096 20.5253 19.734C20.8308 19.5584 21.0845 19.3052 21.2608 19C22.1821 17.4039 22.6445 15.5843 22.5969 13.742C22.5492 11.8996 21.9934 10.1063 20.9908 8.56L20.9808 8.57ZM11.1908 15.41C11.3765 15.596 11.5971 15.7435 11.8399 15.8441C12.0827 15.9448 12.3429 15.9966 12.6058 15.9966C12.8686 15.9966 13.1288 15.9448 13.3716 15.8441C13.6144 15.7435 13.835 15.596 14.0208 15.41L19.6808 6.92L11.1908 12.58C11.0048 12.7657 10.8573 12.9863 10.7566 13.2291C10.656 13.4719 10.6042 13.7322 10.6042 13.995C10.6042 14.2578 10.656 14.5181 10.7566 14.7609C10.8573 15.0037 11.0048 15.2243 11.1908 15.41Z" fill="black"/>
</g>
<defs>
<clipPath id="clip0_5378_10390">
<rect width="24" height="24" fill="white" transform="translate(0.601562)"/>
</clipPath>
</defs>
</svg>
