<svg width="25" height="24" viewBox="0 0 25 24" fill="none" xmlns="http://www.w3.org/2000/svg">
<g clip-path="url(#clip0_5378_9177)">
<path d="M19.6016 3H18.6016V1H16.6016V3H8.60156V1H6.60156V3H5.60156C4.49156 3 3.60156 3.9 3.60156 5V19C3.60156 20.1 4.49156 21 5.60156 21H19.6016C20.7016 21 21.6016 20.1 21.6016 19V5C21.6016 3.9 20.7016 3 19.6016 3ZM12.6016 6C14.2616 6 15.6016 7.34 15.6016 9C15.6016 10.66 14.2616 12 12.6016 12C10.9416 12 9.60156 10.66 9.60156 9C9.60156 7.34 10.9416 6 12.6016 6ZM18.6016 18H6.60156V17C6.60156 15 10.6016 13.9 12.6016 13.9C14.6016 13.9 18.6016 15 18.6016 17V18Z" fill="black"/>
</g>
<defs>
<clipPath id="clip0_5378_9177">
<rect width="24" height="24" fill="white" transform="translate(0.601562)"/>
</clipPath>
</defs>
</svg>
