<svg width="34" height="34" viewBox="0 0 34 34" fill="none" xmlns="http://www.w3.org/2000/svg">
    <path d="M17.3906 8.40156C18.9856 8.40156 20.2781 9.69406 20.2781 11.2891C20.2781 12.8841 18.9856 14.1766 17.3906 14.1766C15.7956 14.1766 14.5031 12.8841 14.5031 11.2891C14.5031 9.69406 15.7956 8.40156 17.3906 8.40156ZM17.3906 20.7766C21.4744 20.7766 25.7781 22.7841 25.7781 23.6641V25.1766H9.00312V23.6641C9.00312 22.7841 13.3069 20.7766 17.3906 20.7766ZM17.3906 5.78906C14.3519 5.78906 11.8906 8.25031 11.8906 11.2891C11.8906 14.3278 14.3519 16.7891 17.3906 16.7891C20.4294 16.7891 22.8906 14.3278 22.8906 11.2891C22.8906 8.25031 20.4294 5.78906 17.3906 5.78906ZM17.3906 18.1641C13.7194 18.1641 6.39062 20.0066 6.39062 23.6641V27.7891H28.3906V23.6641C28.3906 20.0066 21.0619 18.1641 17.3906 18.1641Z" fill="black" />
</svg>