<svg width="28" height="21" viewBox="0 0 28 21" fill="none" xmlns="http://www.w3.org/2000/svg">
<g clip-path="url(#clip0_5378_9705)">
<path d="M17.2266 6.125H8.47656C7.51406 6.125 6.72656 6.9125 6.72656 7.875V16.625C6.72656 17.5875 7.51406 18.375 8.47656 18.375H17.2266C18.1891 18.375 18.9766 17.5875 18.9766 16.625V7.875C18.9766 6.9125 18.1891 6.125 17.2266 6.125ZM17.2266 7.875V9.625H8.47656V7.875H17.2266ZM11.9766 13.125V11.375H13.7266V13.125H11.9766ZM13.7266 14.875V16.625H11.9766V14.875H13.7266ZM10.2266 13.125H8.47656V11.375H10.2266V13.125ZM15.4766 11.375H17.2266V13.125H15.4766V11.375ZM8.47656 14.875H10.2266V16.625H8.47656V14.875ZM15.4766 16.625V14.875H17.2266V16.625H15.4766ZM5.85156 14.875H4.97656C4.01406 14.875 3.22656 14.0875 3.22656 13.125V4.375C3.22656 3.4125 4.01406 2.625 4.97656 2.625H13.7266C14.6891 2.625 15.4766 3.4125 15.4766 4.375V5.25H13.7266V4.375H4.97656V13.125H5.85156V14.875Z" fill="black"/>
</g>
<g clip-path="url(#clip1_5378_9705)">
<path d="M22.6504 0.4375L18.7129 2.1875V4.8125C18.7129 7.24062 20.3929 9.51125 22.6504 10.0625C24.9079 9.51125 26.5879 7.24062 26.5879 4.8125V2.1875L22.6504 0.4375ZM22.6504 5.24563H25.7129C25.481 7.04812 24.2779 8.65375 22.6504 9.15688V5.25H19.5879V2.75625L22.6504 1.39562V5.24563Z" fill="black"/>
</g>
<defs>
<clipPath id="clip0_5378_9705">
<rect width="21" height="21" fill="white" transform="translate(0.601562)"/>
</clipPath>
<clipPath id="clip1_5378_9705">
<rect width="10.5" height="10.5" fill="white" transform="translate(17.4004)"/>
</clipPath>
</defs>
</svg>
