<svg width="46" height="21" viewBox="0 0 46 21" fill="none" xmlns="http://www.w3.org/2000/svg">
<path d="M2.66424 0.451172V10.0733C2.66424 13.7154 4.28771 15.2578 6.47149 15.2578C8.89665 15.2578 10.4483 13.6666 10.4483 10.0733V0.451172H12.5832V9.92685C12.5832 14.9189 9.93969 16.9668 6.39966 16.9668C3.05215 16.9697 0.529297 15.0625 0.529297 10.0245V0.451172H2.66424Z" fill="white" stroke="white" stroke-width="0.333334" stroke-miterlimit="10"/>
<path d="M21.9673 13.6061H21.9184C21.2891 14.7636 19.9789 15.6799 18.0882 15.6799C15.3469 15.6799 13.1172 13.316 13.1172 9.77161C13.1172 5.4086 15.9532 3.47842 18.4272 3.47842C20.2461 3.47842 21.4587 4.37171 22.0391 5.50339H22.088L22.1598 3.74267H24.1712C24.1223 4.73074 24.0993 5.74466 24.0993 6.95102V20.1894H21.9644V13.6061H21.9673ZM21.9673 8.47046C21.9673 8.18036 21.9443 7.8443 21.8696 7.57718C21.5535 6.27603 20.4156 5.16446 18.8151 5.16446C16.6084 5.16446 15.2751 7.01995 15.2751 9.65097C15.2751 11.966 16.39 13.991 18.7433 13.991C20.1254 13.991 21.315 13.1465 21.7977 11.6759C21.8954 11.3858 21.9673 10.978 21.9673 10.662V8.46759V8.47046Z" fill="white" stroke="white" stroke-width="0.333334" stroke-miterlimit="10"/>
<path d="M26.8732 10.2279C26.922 13.0973 28.7639 14.2778 30.8988 14.2778C32.4275 14.2778 33.347 14.0135 34.1486 13.6746L34.5136 15.194C33.7607 15.533 32.4763 15.9179 30.6086 15.9179C26.9967 15.9179 24.8359 13.554 24.8359 10.0354C24.8359 6.51686 26.922 3.74223 30.3414 3.74223C34.1716 3.74223 35.1917 7.09419 35.1917 9.23979C35.1917 9.67351 35.1428 10.0124 35.1198 10.2279H26.8761H26.8732ZM33.1286 8.70842C33.1516 7.35844 32.5711 5.26167 30.169 5.26167C28.011 5.26167 27.0657 7.23781 26.8962 8.70842H33.1286Z" fill="white" stroke="white" stroke-width="0.333334" stroke-miterlimit="10"/>
<path d="M36.595 3.74223L39.1667 10.6386C39.434 11.4112 39.7242 12.3275 39.9196 13.0255H39.9684C40.1868 12.3275 40.4282 11.4342 40.7212 10.5898L43.0487 3.74223H45.3043L42.1033 12.0604C40.5747 16.0644 39.5317 18.1123 38.0777 19.3675C37.0347 20.2837 35.9916 20.6457 35.46 20.7433L34.9256 18.9596C35.46 18.7902 36.1611 18.4541 36.7933 17.9227C37.3766 17.466 38.1036 16.6446 38.5863 15.5588C38.684 15.3405 38.7558 15.1739 38.7558 15.0533C38.7558 14.9327 38.707 14.7632 38.6093 14.499L34.2676 3.74511H36.595V3.74223Z" fill="white" stroke="white" stroke-width="0.333334" stroke-miterlimit="10"/>
</svg>
