<svg width="21" height="16" viewBox="0 0 21 16" fill="none" xmlns="http://www.w3.org/2000/svg">
<rect x="5" width="16" height="4" rx="2" fill="black"/>
<path d="M4 2C4 3.10457 3.10457 4 2 4C0.895431 4 0 3.10457 0 2C0 0.895431 0.895431 0 2 0C3.10457 0 4 0.895431 4 2Z" fill="black"/>
<rect x="5" y="6" width="16" height="4" rx="2" fill="black"/>
<path d="M4 8C4 9.10457 3.10457 10 2 10C0.895431 10 0 9.10457 0 8C0 6.89543 0.895431 6 2 6C3.10457 6 4 6.89543 4 8Z" fill="black"/>
<rect x="5" y="12" width="16" height="4" rx="2" fill="black"/>
<path d="M4 14C4 15.1046 3.10457 16 2 16C0.895431 16 0 15.1046 0 14C0 12.8954 0.895431 12 2 12C3.10457 12 4 12.8954 4 14Z" fill="black"/>
</svg>
