<svg width="32" height="20" viewBox="0 0 32 20" fill="none" xmlns="http://www.w3.org/2000/svg">
<g clip-path="url(#clip0_5378_9528)">
<path d="M3.76888 5.75001H2.18555V16.8333C2.18555 17.7042 2.89805 18.4167 3.76888 18.4167H14.8522V16.8333H3.76888V5.75001ZM16.4355 2.58334H6.93555C6.06471 2.58334 5.35221 3.29584 5.35221 4.16668V13.6667C5.35221 14.5375 6.06471 15.25 6.93555 15.25H16.4355C17.3064 15.25 18.0189 14.5375 18.0189 13.6667V4.16668C18.0189 3.29584 17.3064 2.58334 16.4355 2.58334ZM15.6439 9.70834H7.72721V8.12501H15.6439V9.70834ZM12.4772 12.875H7.72721V11.2917H12.4772V12.875ZM15.6439 6.54168H7.72721V4.95834H15.6439V6.54168Z" fill="black"/>
</g>
<g clip-path="url(#clip1_5378_9528)">
<path d="M20.2266 9.34376V11.375H22.2578L28.2486 5.38418L26.2174 3.35293L20.2266 9.34376ZM29.8195 3.81334C30.0307 3.60209 30.0307 3.26084 29.8195 3.04959L28.552 1.78209C28.3407 1.57084 27.9995 1.57084 27.7882 1.78209L26.797 2.77334L28.8282 4.80459L29.8195 3.81334V3.81334Z" fill="black"/>
</g>
<defs>
<clipPath id="clip0_5378_9528">
<rect width="19" height="19" fill="white" transform="translate(0.601562 1)"/>
</clipPath>
<clipPath id="clip1_5378_9528">
<rect width="13" height="13" fill="white" transform="translate(18.6016)"/>
</clipPath>
</defs>
</svg>
