<svg width="25" height="24" viewBox="0 0 25 24" fill="none" xmlns="http://www.w3.org/2000/svg">
<g clip-path="url(#clip0_5378_10527)">
<path d="M20.0561 12.94C20.0961 12.64 20.1161 12.33 20.1161 12C20.1161 11.68 20.0961 11.36 20.0461 11.06L22.0761 9.47999C22.2561 9.33999 22.3061 9.06999 22.1961 8.86999L20.2761 5.54999C20.1561 5.32999 19.9061 5.25999 19.6861 5.32999L17.2961 6.28999C16.7961 5.90999 16.2661 5.58999 15.6761 5.34999L15.3161 2.80999C15.2761 2.56999 15.0761 2.39999 14.8361 2.39999H10.9961C10.7561 2.39999 10.5661 2.56999 10.5261 2.80999L10.1661 5.34999C9.57613 5.58999 9.03613 5.91999 8.54613 6.28999L6.15613 5.32999C5.93613 5.24999 5.68613 5.32999 5.56613 5.54999L3.65613 8.86999C3.53613 9.07999 3.57613 9.33999 3.77613 9.47999L5.80613 11.06C5.75613 11.36 5.71613 11.69 5.71613 12C5.71613 12.31 5.73613 12.64 5.78613 12.94L3.75613 14.52C3.57613 14.66 3.52613 14.93 3.63613 15.13L5.55613 18.45C5.67613 18.67 5.92613 18.74 6.14613 18.67L8.53613 17.71C9.03613 18.09 9.56612 18.41 10.1561 18.65L10.5161 21.19C10.5661 21.43 10.7561 21.6 10.9961 21.6H14.8361C15.0761 21.6 15.2761 21.43 15.3061 21.19L15.6661 18.65C16.2561 18.41 16.7961 18.09 17.2861 17.71L19.6761 18.67C19.8961 18.75 20.1461 18.67 20.2661 18.45L22.1861 15.13C22.3061 14.91 22.2561 14.66 22.0661 14.52L20.0561 12.94ZM12.9161 15.6C10.9361 15.6 9.31612 13.98 9.31612 12C9.31612 10.02 10.9361 8.39999 12.9161 8.39999C14.8961 8.39999 16.5161 10.02 16.5161 12C16.5161 13.98 14.8961 15.6 12.9161 15.6Z" fill="white"/>
</g>
<defs>
<clipPath id="clip0_5378_10527">
<rect width="24" height="24" fill="white" transform="translate(0.917969)"/>
</clipPath>
</defs>
</svg>
