<svg width="21" height="21" viewBox="0 0 21 21" fill="none" xmlns="http://www.w3.org/2000/svg">
<g clip-path="url(#clip0_11008_8622)">
<path d="M16.625 6.125H7.875C6.9125 6.125 6.125 6.9125 6.125 7.875V16.625C6.125 17.5875 6.9125 18.375 7.875 18.375H16.625C17.5875 18.375 18.375 17.5875 18.375 16.625V7.875C18.375 6.9125 17.5875 6.125 16.625 6.125ZM16.625 7.875V9.625H7.875V7.875H16.625ZM11.375 13.125V11.375H13.125V13.125H11.375ZM13.125 14.875V16.625H11.375V14.875H13.125ZM9.625 13.125H7.875V11.375H9.625V13.125ZM14.875 11.375H16.625V13.125H14.875V11.375ZM7.875 14.875H9.625V16.625H7.875V14.875ZM14.875 16.625V14.875H16.625V16.625H14.875ZM5.25 14.875H4.375C3.4125 14.875 2.625 14.0875 2.625 13.125V4.375C2.625 3.4125 3.4125 2.625 4.375 2.625H13.125C14.0875 2.625 14.875 3.4125 14.875 4.375V5.25H13.125V4.375H4.375V13.125H5.25V14.875Z" fill="black"/>
</g>
<defs>
<clipPath id="clip0_11008_8622">
<rect width="21" height="21" fill="white"/>
</clipPath>
</defs>
</svg>
