<svg width="25" height="24" viewBox="0 0 25 24" fill="none" xmlns="http://www.w3.org/2000/svg">
<path d="M6.2766 15.9751L6.27508 16.076L6.33093 16.16C7.67859 18.1867 9.98818 19.525 12.6016 19.525C15.2149 19.525 17.5245 18.1867 18.8722 16.16L18.928 16.076L18.9265 15.9751C18.9173 15.3606 18.6016 14.8412 18.1533 14.4219C17.7063 14.0038 17.1055 13.6628 16.4619 13.3939C15.176 12.8566 13.641 12.575 12.6016 12.575C11.5572 12.575 10.0221 12.8566 8.73741 13.3939C8.09437 13.6629 7.49446 14.0039 7.04823 14.4221C6.60064 14.8415 6.28586 15.3609 6.2766 15.9751ZM2.92656 12C2.92656 6.65949 7.26105 2.325 12.6016 2.325C17.9421 2.325 22.2766 6.65949 22.2766 12C22.2766 17.3405 17.9421 21.675 12.6016 21.675C7.26105 21.675 2.92656 17.3405 2.92656 12ZM15.9266 8C15.9266 6.16051 14.4411 4.675 12.6016 4.675C10.7621 4.675 9.27656 6.16051 9.27656 8C9.27656 9.83949 10.7621 11.325 12.6016 11.325C14.4411 11.325 15.9266 9.83949 15.9266 8Z" fill="white" stroke="black" stroke-width="0.65"/>
</svg>
