<svg width="25" height="24" viewBox="0 0 25 24" fill="none" xmlns="http://www.w3.org/2000/svg">
<g clip-path="url(#clip0_5378_9892)">
<path d="M16.9916 9H8.21156C7.78156 9 7.40156 9.28 7.26156 9.68L5.60156 14.68V21.49C5.60156 21.78 5.83156 22 6.10156 22H7.10156C7.38156 22 7.60156 21.78 7.60156 21.5V20H17.6016V21.5C17.6016 21.78 17.8216 22 18.1016 22H19.1016C19.3816 22 19.6016 21.78 19.6016 21.5V14.69L17.9416 9.69C17.8016 9.28 17.4216 9 16.9916 9ZM8.38156 18C7.70156 18 7.16156 17.46 7.16156 16.78C7.16156 16.1 7.70156 15.56 8.38156 15.56C9.06156 15.56 9.60156 16.11 9.60156 16.78C9.60156 17.45 9.06156 18 8.38156 18ZM16.8216 18C16.1516 18 15.6016 17.46 15.6016 16.78C15.6016 16.1 16.1416 15.56 16.8216 15.56C17.5016 15.56 18.0416 16.1 18.0416 16.78C18.0416 17.46 17.5016 18 16.8216 18ZM6.89156 14L8.22156 10H17.0016L18.3316 14H6.89156Z" fill="black"/>
<path d="M11.4316 3C11.0116 1.83 9.90156 1 8.60156 1C6.94156 1 5.60156 2.34 5.60156 4C5.60156 5.65 6.94156 7 8.60156 7C9.90156 7 11.0116 6.16 11.4316 5H16.6016V7H18.6016V5H19.6016V3H11.4316ZM8.60156 5C8.05156 5 7.60156 4.55 7.60156 4C7.60156 3.45 8.05156 3 8.60156 3C9.15156 3 9.60156 3.45 9.60156 4C9.60156 4.55 9.15156 5 8.60156 5Z" fill="black"/>
</g>
<defs>
<clipPath id="clip0_5378_9892">
<rect width="24" height="24" fill="white" transform="translate(0.601562)"/>
</clipPath>
</defs>
</svg>
