<svg width="14" height="14" viewBox="0 0 14 14" fill="none" xmlns="http://www.w3.org/2000/svg">
<rect width="14" height="14" fill="white"/>
<path d="M9.5566 4.32867H8.91539C8.77594 4.32867 8.64332 4.39567 8.56129 4.51051L6.41207 7.49098L5.43863 6.1402C5.3566 6.02672 5.22535 5.95836 5.08453 5.95836H4.44332C4.35445 5.95836 4.3025 6.05953 4.35445 6.13199L6.05797 8.49449C6.09821 8.55066 6.15126 8.59643 6.21272 8.628C6.27419 8.65958 6.34229 8.67605 6.41139 8.67605C6.48048 8.67605 6.54859 8.65958 6.61005 8.628C6.67151 8.59643 6.72456 8.55066 6.7648 8.49449L9.6441 4.50231C9.69742 4.42985 9.64547 4.32867 9.5566 4.32867Z" fill="black" fill-opacity="0.85"/>
<path d="M7 0.37793C3.61758 0.37793 0.875 3.12051 0.875 6.50293C0.875 9.88535 3.61758 12.6279 7 12.6279C10.3824 12.6279 13.125 9.88535 13.125 6.50293C13.125 3.12051 10.3824 0.37793 7 0.37793ZM7 11.5889C4.1918 11.5889 1.91406 9.31113 1.91406 6.50293C1.91406 3.69473 4.1918 1.41699 7 1.41699C9.8082 1.41699 12.0859 3.69473 12.0859 6.50293C12.0859 9.31113 9.8082 11.5889 7 11.5889Z" fill="black" fill-opacity="0.85"/>
</svg>
